<svg xmlns="http://www.w3.org/2000/svg" width="34" height="34" viewBox="0 0 34 34" fill="none">
  <g clip-path="url(#clip0_18369_30)">
    <path d="M1.32817 15.6719H29.4551L24.7957 11.0351C24.2758 10.5177 24.2739 9.67678 24.7913 9.15689C25.3087 8.63693 26.1497 8.635 26.6696 9.15237L33.6093 16.0586C33.6098 16.059 33.6101 16.0595 33.6105 16.0599C34.1291 16.5773 34.1307 17.4209 33.6106 17.9401C33.6102 17.9405 33.6098 17.941 33.6094 17.9414L26.6697 24.8476C26.1499 25.3649 25.3089 25.3631 24.7914 24.8431C24.274 24.3232 24.276 23.4823 24.7959 22.9648L29.4551 18.3281H1.32817C0.594646 18.3281 4.57764e-05 17.7335 4.57764e-05 17C4.57764e-05 16.2665 0.594646 15.6719 1.32817 15.6719Z" fill="currentColor"/>
  </g>
</svg>
